<svg width="60" height="60" viewBox="0 0 60 60" fill="none" xmlns="http://www.w3.org/2000/svg">
<g clip-path="url(#clip0_382_45750)">
<path d="M50.2266 55.3575L4.71165 50.313C2.52329 50.0705 0.945998 48.1 1.18847 45.9116L5.37188 8.1656C5.61447 5.97724 7.58506 4.39983 9.77329 4.64242L55.2882 9.68689C57.4766 9.92948 59.054 11.9001 58.8114 14.0883L54.628 51.8343C54.3855 54.0227 52.4149 55.6001 50.2266 55.3575Z" fill="url(#paint0_linear_382_45750)"/>
<path d="M58.8114 14.0884L57.162 28.9748L53.4959 9.4884L55.2889 9.68699C57.4766 9.92911 59.0536 11.8995 58.8114 14.0884V14.0884Z" fill="url(#paint1_linear_382_45750)"/>
<path d="M56.7498 48.3458L11.7455 56.8122C9.58176 57.2193 7.49765 55.7951 7.09059 53.6314L0.0694092 16.3089C-0.33765 14.1451 1.08647 12.061 3.25023 11.654L48.2545 3.18761C50.4182 2.78055 52.5024 4.20467 52.9094 6.36843L59.9306 43.6909C60.3377 45.8548 58.9135 47.9389 56.7498 48.3458V48.3458Z" fill="url(#paint2_linear_382_45750)"/>
<path d="M53.8701 11.476V48.8876L56.7496 48.3458C58.9134 47.9388 60.3375 45.8547 59.9305 43.6909L53.8701 11.476Z" fill="url(#paint3_linear_382_45750)"/>
<path d="M6.87647 52.4926L7.0907 53.6314C7.49776 55.7951 9.58188 57.2193 11.7456 56.8122L34.7074 52.4926H6.87647Z" fill="url(#paint4_linear_382_45750)"/>
<path d="M49.8835 52.7254H4.09C1.88823 52.7254 0.103409 50.9406 0.103409 48.7388V10.7616C0.103409 8.55985 1.88823 6.77502 4.09 6.77502H49.8835C52.0853 6.77502 53.8701 8.55985 53.8701 10.7616V48.7388C53.8701 50.9406 52.0853 52.7254 49.8835 52.7254Z" fill="url(#paint5_linear_382_45750)"/>
<path d="M46.1505 48.9795H7.82317C5.98047 48.9795 4.48659 47.4856 4.48659 45.6429V13.8576C4.48659 12.0149 5.98047 10.521 7.82317 10.521H46.1505C47.9932 10.521 49.4871 12.0149 49.4871 13.8576V45.6429C49.4871 47.4856 47.9932 48.9795 46.1505 48.9795Z" fill="url(#paint6_linear_382_45750)"/>
<path d="M29.6552 48.9795H7.82376C5.9807 48.9795 4.48611 47.4861 4.48611 45.6432V40.4326L10.0252 33.6999C11.8532 31.476 15.2558 31.476 17.0851 33.6999L20.5339 37.8928L29.6552 48.9795Z" fill="url(#paint7_linear_382_45750)"/>
<path d="M49.4874 37.2647V45.6432C49.4874 47.4863 47.9928 48.9795 46.1498 48.9795H11.4123L20.5338 37.8928L31.7392 24.2713C33.5672 22.0487 36.9711 22.0487 38.7991 24.2713L49.4874 37.2647Z" fill="url(#paint8_linear_382_45750)"/>
<path d="M16.1441 23.3103C18.7573 23.3103 20.8758 21.1919 20.8758 18.5787C20.8758 15.9655 18.7573 13.847 16.1441 13.847C13.5309 13.847 11.4125 15.9655 11.4125 18.5787C11.4125 21.1919 13.5309 23.3103 16.1441 23.3103Z" fill="url(#paint9_linear_382_45750)"/>
</g>
<defs>
<linearGradient id="paint0_linear_382_45750" x1="15.3309" y1="11.6672" x2="49.1692" y2="53.9268" gradientUnits="userSpaceOnUse">
<stop stop-color="#FFA936"/>
<stop offset="0.4112" stop-color="#FF8548"/>
<stop offset="0.7781" stop-color="#FF6C54"/>
<stop offset="1" stop-color="#FF6359"/>
</linearGradient>
<linearGradient id="paint1_linear_382_45750" x1="57.7044" y1="18.7076" x2="54.8741" y2="19.3319" gradientUnits="userSpaceOnUse">
<stop stop-color="#F82814" stop-opacity="0"/>
<stop offset="1" stop-color="#C0272D"/>
</linearGradient>
<linearGradient id="paint2_linear_382_45750" x1="10.6158" y1="16.7556" x2="55.3252" y2="47.3019" gradientUnits="userSpaceOnUse">
<stop stop-color="#CDEC7A"/>
<stop offset="0.2157" stop-color="#B0E995"/>
<stop offset="0.5613" stop-color="#87E4BB"/>
<stop offset="0.8347" stop-color="#6EE1D2"/>
<stop offset="1" stop-color="#65E0DB"/>
</linearGradient>
<linearGradient id="paint3_linear_382_45750" x1="57.8449" y1="30.1818" x2="53.0161" y2="30.1818" gradientUnits="userSpaceOnUse">
<stop stop-color="#CDEC7A" stop-opacity="0"/>
<stop offset="0.2354" stop-color="#9AD57D" stop-opacity="0.235"/>
<stop offset="0.6035" stop-color="#51B482" stop-opacity="0.604"/>
<stop offset="0.8679" stop-color="#239F85" stop-opacity="0.868"/>
<stop offset="1" stop-color="#119786"/>
</linearGradient>
<linearGradient id="paint4_linear_382_45750" x1="20.7919" y1="54.9314" x2="20.7919" y2="52.0707" gradientUnits="userSpaceOnUse">
<stop stop-color="#CDEC7A" stop-opacity="0"/>
<stop offset="0.2354" stop-color="#9AD57D" stop-opacity="0.235"/>
<stop offset="0.6035" stop-color="#51B482" stop-opacity="0.604"/>
<stop offset="0.8679" stop-color="#239F85" stop-opacity="0.868"/>
<stop offset="1" stop-color="#119786"/>
</linearGradient>
<linearGradient id="paint5_linear_382_45750" x1="10.384" y1="13.1474" x2="48.6626" y2="51.426" gradientUnits="userSpaceOnUse">
<stop stop-color="#F8F6FB"/>
<stop offset="1" stop-color="#EFDCFB"/>
</linearGradient>
<linearGradient id="paint6_linear_382_45750" x1="13.2668" y1="11.9005" x2="50.6014" y2="60.473" gradientUnits="userSpaceOnUse">
<stop stop-color="#18CEFB"/>
<stop offset="0.2969" stop-color="#2BB9F9"/>
<stop offset="0.7345" stop-color="#42A0F7"/>
<stop offset="1" stop-color="#4A97F6"/>
</linearGradient>
<linearGradient id="paint7_linear_382_45750" x1="8.8927" y1="37.2388" x2="25.2489" y2="58.5184" gradientUnits="userSpaceOnUse">
<stop stop-color="#CDEC7A"/>
<stop offset="0.2154" stop-color="#B0E995" stop-opacity="0.784"/>
<stop offset="0.5604" stop-color="#87E4BB" stop-opacity="0.439"/>
<stop offset="0.8334" stop-color="#6EE1D2" stop-opacity="0.165"/>
<stop offset="0.9985" stop-color="#65E0DB" stop-opacity="0"/>
</linearGradient>
<linearGradient id="paint8_linear_382_45750" x1="23.3908" y1="33.9381" x2="43.1175" y2="59.6026" gradientUnits="userSpaceOnUse">
<stop stop-color="#CDEC7A"/>
<stop offset="0.2157" stop-color="#B0E995"/>
<stop offset="0.5613" stop-color="#87E4BB"/>
<stop offset="0.8347" stop-color="#6EE1D2"/>
<stop offset="1" stop-color="#65E0DB"/>
</linearGradient>
<linearGradient id="paint9_linear_382_45750" x1="13.7932" y1="15.5202" x2="20.1904" y2="23.843" gradientUnits="userSpaceOnUse">
<stop stop-color="#FFD945"/>
<stop offset="0.3043" stop-color="#FFCD3E"/>
<stop offset="0.8558" stop-color="#FFAD2B"/>
<stop offset="1" stop-color="#FFA325"/>
</linearGradient>
<clipPath id="clip0_382_45750">
<rect width="60" height="60" fill="white"/>
</clipPath>
</defs>
</svg>
