<svg width="301" height="302" viewBox="0 0 301 302" fill="none" xmlns="http://www.w3.org/2000/svg">
<path d="M139.439 213.975L98.976 200.487L87.1142 200.42L66.3659 260.032C65.7047 261.931 67.2432 263.873 69.243 263.663L98.327 260.618C99.1394 260.533 99.9472 260.814 100.531 261.385L121.439 281.83C122.876 283.236 125.288 282.669 125.948 280.771L146.833 220.769L139.439 213.975Z" fill="#0083FD"/>
<path d="M146.833 220.769L151.053 208.645L91.3221 188.333L87.1147 200.421C104.076 212.524 124.613 219.932 146.833 220.769V220.769Z" fill="#0072FC"/>
<path d="M162.666 213.975L203.13 200.487L214.991 200.42L235.74 260.033C236.401 261.932 234.863 263.873 232.863 263.664L203.779 260.618C202.967 260.533 202.159 260.814 201.575 261.385L180.668 281.831C179.23 283.237 176.819 282.67 176.158 280.771L155.274 220.769L162.666 213.975Z" fill="#0083FD"/>
<path d="M155.273 220.769L151.053 208.645L210.783 188.333L214.991 200.421C198.03 212.524 177.493 219.932 155.273 220.769Z" fill="#0072FC"/>
<path d="M249.974 116.184L236.594 96.6107L238.034 72.9715C238.179 70.593 236.87 68.364 234.721 67.3328L213.392 57.0935L203.152 35.7638C202.107 33.5864 199.831 32.2723 197.425 32.4571L173.874 34.2513L154.361 20.5526C152.341 19.1342 149.648 19.1342 147.628 20.5526L128.115 34.2509L104.564 32.4567C102.159 32.2719 99.8813 33.586 98.8364 35.7634L88.5967 57.0931L67.267 67.3324C65.0896 68.3777 63.7763 70.6516 63.9599 73.0598L65.7541 96.6107L52.0562 116.124C50.6382 118.145 50.6382 120.837 52.0562 122.858L65.7545 142.371L63.9603 165.922C63.7767 168.33 65.09 170.604 67.2674 171.649L88.5971 181.889L98.8364 203.218C99.8817 205.396 102.154 206.709 104.564 206.525L128.115 204.73L147.628 218.429C148.638 219.138 149.816 219.493 150.994 219.493C152.173 219.493 153.351 219.138 154.361 218.429L173.874 204.73L197.425 206.525C199.829 206.708 202.107 205.395 203.152 203.218L213.392 181.889L234.721 171.649C236.899 170.604 238.212 168.33 238.029 165.922L236.234 142.371L249.933 122.858C251.335 120.859 251.352 118.2 249.974 116.184Z" fill="url(#paint0_linear_1017_56691)"/>
<path d="M150.994 55.0371C115.454 55.0371 86.5398 83.9513 86.5398 119.491C86.5398 155.032 115.454 183.946 150.994 183.946C186.534 183.946 215.449 155.032 215.449 119.491C215.449 83.9513 186.534 55.0371 150.994 55.0371ZM178.626 118.05L168.972 127.945L171.263 141.986C171.624 144.201 170.688 146.427 168.854 147.719C167.03 149.005 164.618 149.149 162.644 148.057L150.994 141.617L139.344 148.058C137.38 149.143 134.968 149.012 133.134 147.72C131.3 146.428 130.364 144.201 130.725 141.986L133.016 127.945L123.362 118.051C121.828 116.479 121.303 114.181 122 112.099C122.697 110.016 124.5 108.498 126.671 108.167L139.776 106.164L145.69 93.564C146.655 91.5073 148.722 90.194 150.994 90.194C153.266 90.194 155.333 91.5074 156.299 93.5636L162.213 106.164L175.317 108.166C177.488 108.498 179.292 110.016 179.988 112.098C180.686 114.181 180.16 116.479 178.626 118.05Z" fill="url(#paint1_linear_1017_56691)"/>
<defs>
<linearGradient id="paint0_linear_1017_56691" x1="150.994" y1="241.957" x2="150.994" y2="-13.8452" gradientUnits="userSpaceOnUse">
<stop stop-color="#00B59C"/>
<stop offset="1" stop-color="#9CFFAC"/>
</linearGradient>
<linearGradient id="paint1_linear_1017_56691" x1="150.994" y1="183.946" x2="150.994" y2="55.0371" gradientUnits="userSpaceOnUse">
<stop stop-color="#C3FFE8"/>
<stop offset="0.9973" stop-color="#F0FFF4"/>
</linearGradient>
</defs>
</svg>
